# xmcd CD database file
#
# Track frame offsets:
#	150
#	9233
#	67736
#	128565
#	190795
#	235592
#	300447
#
# Disc length: 4340 seconds
#
# Revision: 0
# Processed by: cddbd v1.5.2PL0 Copyright (c) Steve Scherf et al.
# Submitted via: CDex 1.70beta2
#
DISCID=4110f207
DTITLE=Grandmothers - Live at 34. Jazzfestival des HR
DYEAR=2003
DGENRE=Jazz
TTITLE0=Ansage
TTITLE1=A Pound For A Brown
TTITLE2=Oh No - Son Of Orange County - Trouble Every Day
TTITLE3=Horta Babies - Sweet Fifteen
TTITLE4=Twenty Small Cigars
TTITLE5=Amsterdam - Peace For All
TTITLE6=Carolina Hardcore Ecstacy
EXTD=YEAR: 2003
EXTT0=
EXTT1=
EXTT2=
EXTT3=
EXTT4=
EXTT5=
EXTT6=
PLAYORDER=
